<svg xmlns="http://www.w3.org/2000/svg" xmlns:xlink="http://www.w3.org/1999/xlink" width="500" zoomAndPan="magnify" viewBox="0 0 375 374.999991" height="500" preserveAspectRatio="xMidYMid meet" version="1.0"><defs><clipPath id="8f606aaac9"><path d="M 22.714844 145.964844 L 106 145.964844 L 106 228.882812 L 22.714844 228.882812 Z M 22.714844 145.964844 " clip-rule="nonzero"/></clipPath><clipPath id="8636af49cd"><path d="M 122 147 L 350.140625 147 L 350.140625 223 L 122 223 Z M 122 147 " clip-rule="nonzero"/></clipPath></defs><rect x="-37.5" width="450" fill="#ffffff" y="-37.499999" height="449.999989" fill-opacity="1"/><rect x="-37.5" width="450" fill="#ffffff" y="-37.499999" height="449.999989" fill-opacity="1"/><g clip-path="url(#8f606aaac9)"><path fill="#0e214b" d="M 88.46875 228.882812 L 39.726562 228.882812 C 30.347656 228.882812 22.714844 221.238281 22.714844 211.8125 L 22.714844 163 C 22.714844 153.609375 30.347656 145.964844 39.726562 145.964844 L 88.46875 145.964844 C 97.882812 145.964844 105.480469 153.609375 105.480469 163 L 105.480469 211.8125 C 105.515625 221.238281 97.882812 228.882812 88.46875 228.882812 Z M 88.46875 228.882812 " fill-opacity="1" fill-rule="nonzero"/></g><g clip-path="url(#8636af49cd)"><path fill="#0e214b" d="M 279.617188 171.699219 C 284.957031 172.429688 288.558594 176.398438 287.832031 184.222656 C 286.050781 203.441406 269.402344 223.097656 244.757812 222.550781 L 243.996094 222.515625 L 244.066406 222.371094 C 268.203125 222.441406 283.324219 202.132812 284.957031 184.113281 C 285.613281 177.050781 282.378906 173.449219 277.652344 172.792969 C 270.675781 171.808594 262.242188 176.070312 257.152344 183.277344 L 256.972656 183.53125 L 256.898438 183.421875 C 262.277344 175.269531 271.765625 170.609375 279.617188 171.699219 Z M 329.160156 171.445312 C 345.515625 172.390625 350.238281 184.367188 350.132812 190.921875 C 349.839844 208.5 336.175781 220.839844 312.800781 222.480469 L 312.074219 222.515625 L 312.109375 222.40625 C 333.886719 220.730469 347.296875 206.644531 347.585938 189.210938 C 347.695312 183.238281 343.625 173.011719 329.484375 171.628906 L 329.050781 171.589844 Z M 242.722656 152.371094 C 245.15625 155.574219 242.140625 162.089844 240.433594 166.460938 L 240.359375 166.640625 L 226.875 201.730469 C 225.964844 204.058594 224.910156 206.679688 224.65625 209.519531 C 224.074219 216.109375 229.855469 221.785156 241.269531 222.371094 L 241.632812 222.40625 L 241.597656 222.515625 C 228.328125 222.113281 221.96875 215.5625 222.585938 208.320312 C 222.839844 205.480469 223.710938 203.1875 224.546875 201.003906 L 224.65625 200.710938 L 238.070312 165.878906 C 238.214844 165.441406 238.359375 165.039062 238.542969 164.601562 L 238.6875 164.167969 C 238.761719 163.949219 238.832031 163.765625 238.941406 163.546875 L 239.085938 163.148438 C 240.542969 159.289062 241.742188 155.722656 239.742188 153.320312 L 239.632812 153.210938 L 239.632812 153.027344 Z M 326.761719 171.300781 L 326.722656 171.410156 C 306.367188 173.046875 291.539062 187.28125 291.210938 204.605469 C 291.101562 210.574219 295.28125 221.023438 309.351562 222.222656 L 309.785156 222.261719 L 309.75 222.371094 C 293.355469 221.421875 288.632812 209.339844 288.738281 202.785156 C 289.03125 185.132812 303.96875 172.71875 326.761719 171.300781 Z M 275.617188 174.066406 C 279.941406 174.6875 282.707031 177.851562 282.121094 184.078125 C 280.5625 200.820312 265.65625 221.640625 244.792969 222.1875 L 244.175781 222.1875 L 244.210938 222.078125 C 263.257812 220.914062 277.945312 199.546875 279.398438 184.003906 C 279.90625 178.542969 277.398438 175.703125 273.691406 175.195312 C 268.3125 174.46875 261.695312 177.960938 257.480469 183.675781 L 257.296875 183.894531 L 257.226562 183.785156 C 261.804688 177.050781 269.402344 173.195312 275.617188 174.066406 Z M 329.011719 171.738281 C 341.589844 172.757812 345.441406 181.820312 345.371094 187.351562 C 345.078125 204.316406 332.175781 220.402344 312.875 222.152344 L 312.292969 222.1875 L 312.328125 222.078125 C 329.742188 220.292969 342.679688 202.457031 342.972656 185.605469 C 343.042969 180.65625 339.445312 173.085938 329.265625 171.882812 L 328.976562 171.847656 Z M 249.082031 151.0625 C 251.15625 153.863281 247.410156 162.164062 246.03125 165.695312 L 245.957031 165.839844 L 231.34375 203.660156 C 230.4375 205.878906 229.128906 209.230469 228.875 212.066406 C 228.402344 217.457031 233.015625 221.53125 241.488281 222.078125 L 241.742188 222.078125 L 241.703125 222.1875 C 231.453125 221.785156 226.257812 216.875 226.765625 210.832031 C 227.019531 207.992188 228.109375 205.1875 229.019531 202.933594 L 229.128906 202.640625 L 243.269531 165.914062 C 244.792969 162.128906 247.882812 155.355469 245.847656 152.082031 L 245.738281 151.9375 L 245.738281 151.753906 Z M 326.613281 171.628906 L 326.578125 171.738281 C 309.675781 173.519531 296.300781 191.683594 296.007812 208.210938 C 295.9375 213.160156 298.953125 220.839844 309.601562 221.96875 L 309.929688 222.003906 L 309.894531 222.113281 C 297.316406 221.277344 293.425781 211.921875 293.539062 206.390625 C 293.792969 189.390625 307.675781 173.046875 326.613281 171.628906 Z M 255.625 149.714844 C 256.679688 152.808594 252.355469 162.78125 251.484375 165.074219 L 251.445312 165.148438 L 235.851562 205.515625 C 234.945312 207.847656 233.488281 211.667969 233.234375 214.507812 C 232.980469 217.492188 234.472656 219.601562 237.488281 220.695312 C 239.453125 221.421875 241.195312 221.679688 241.851562 221.75 L 241.921875 221.75 L 241.886719 221.859375 C 234.542969 221.351562 230.617188 218.039062 231.054688 213.195312 C 231.273438 210.539062 232.617188 207.082031 233.5625 204.753906 L 233.671875 204.496094 L 248.902344 165.039062 C 249.917969 162.417969 254.027344 153.210938 252.535156 150.625 L 252.464844 150.515625 L 252.464844 150.335938 Z M 328.867188 172.066406 C 337.664062 173.046875 340.570312 179.308594 340.5 183.785156 C 340.207031 200.128906 328.070312 219.859375 312.875 221.824219 L 312.402344 221.859375 L 312.472656 221.75 C 325.742188 219.96875 337.808594 198.238281 338.101562 182.039062 C 338.171875 178.105469 335.773438 173.300781 329.050781 172.175781 L 328.796875 172.136719 Z M 271.765625 176.46875 C 274.890625 176.90625 277 179.34375 276.5625 183.96875 C 275.289062 197.871094 262.386719 219.277344 244.902344 221.75 L 244.359375 221.824219 L 244.394531 221.714844 C 260.460938 218.328125 272.527344 196.527344 273.726562 183.785156 C 274.089844 180.035156 272.417969 177.960938 269.730469 177.597656 C 265.984375 177.089844 261.222656 179.671875 257.769531 184.078125 L 257.589844 184.296875 L 257.515625 184.1875 C 261.113281 179.015625 267.003906 175.8125 271.765625 176.46875 Z M 127.460938 157.46875 C 127.5 157.503906 127.535156 157.503906 127.570312 157.542969 L 127.679688 157.613281 C 129.390625 158.886719 131.316406 160.746094 133.132812 169.082031 L 133.207031 169.371094 L 144.472656 221.714844 L 141.929688 221.714844 C 141.929688 221.714844 130.769531 169.84375 130.734375 169.773438 C 129.132812 162.457031 127.097656 159.289062 123.0625 157.613281 L 122.882812 157.542969 L 122.882812 157.433594 Z M 135.929688 157.46875 C 135.96875 157.761719 136.003906 158.015625 136.039062 158.304688 L 136.078125 158.523438 C 136.367188 160.671875 136.765625 162.820312 138.074219 168.460938 L 138.148438 168.753906 L 149.5625 221.75 L 147.019531 221.75 L 135.640625 168.933594 C 134.148438 162.820312 133.605469 159.980469 131.789062 157.6875 L 131.679688 157.578125 L 131.679688 157.46875 Z M 326.46875 171.917969 L 326.394531 172.027344 C 313.601562 173.8125 301.027344 195.941406 300.734375 211.742188 C 300.664062 215.671875 303.058594 220.660156 309.785156 221.605469 L 310.003906 221.640625 L 309.929688 221.75 C 301.246094 221.023438 298.226562 214.398438 298.296875 209.882812 C 298.664062 193.796875 311.457031 173.519531 326.46875 171.917969 Z M 184.203125 179.164062 C 185.621094 179.164062 186.457031 179.964844 186.527344 181.492188 C 186.601562 182.839844 185.691406 185.605469 184.601562 188.445312 L 184.421875 188.917969 L 184.203125 189.464844 C 183.367188 191.574219 182.492188 193.648438 181.875 195.179688 L 181.765625 195.398438 L 171.261719 221.714844 L 168.644531 221.714844 L 179.257812 195.214844 C 180.675781 191.757812 184.203125 183.75 184.09375 181.601562 C 184.054688 180.582031 183.511719 180.183594 182.710938 180.183594 C 180.820312 180.183594 177.515625 184.914062 175.371094 189.71875 L 175.261719 189.9375 L 175.113281 189.9375 C 177.296875 184.441406 180.894531 179.164062 184.203125 179.164062 Z M 187 177.234375 C 189.617188 177.234375 191.109375 178.871094 191.253906 181.203125 C 191.433594 184.695312 188.5625 191.320312 186.855469 195.507812 L 186.746094 195.726562 L 176.53125 221.714844 L 173.914062 221.714844 L 184.347656 195.507812 C 185.835938 191.539062 189 184.441406 188.855469 181.273438 C 188.746094 179.34375 187.582031 178.214844 185.582031 178.214844 C 181.039062 178.214844 177.257812 183.929688 175.003906 189.683594 L 174.933594 189.902344 L 174.789062 189.902344 C 176.894531 183.386719 181.332031 177.234375 187 177.234375 Z M 192.632812 173.265625 C 197.6875 173.265625 200.449219 176.503906 200.667969 180.691406 C 200.921875 185.460938 199.25 190.082031 197.433594 194.707031 L 197.140625 195.398438 L 196.921875 195.90625 L 196.707031 196.417969 L 187.039062 221.714844 L 184.421875 221.714844 L 194.269531 196.234375 C 196.125 191.246094 198.449219 185.789062 198.195312 180.800781 C 198.015625 177.050781 195.542969 174.285156 191.109375 174.285156 C 181.839844 174.285156 176.53125 181.566406 174.167969 189.683594 L 174.097656 189.9375 L 173.988281 189.9375 C 176.167969 181.09375 182.203125 173.265625 192.632812 173.265625 Z M 189.835938 175.195312 C 193.652344 175.195312 195.796875 177.632812 195.980469 180.875 C 196.195312 185.351562 193.726562 191.066406 191.945312 195.6875 L 191.835938 195.980469 L 181.875 221.679688 L 179.148438 221.679688 L 189.289062 195.871094 C 191.070312 191.394531 193.761719 184.988281 193.542969 181.054688 C 193.398438 178.214844 191.582031 176.179688 188.34375 176.179688 C 181.585938 176.179688 176.894531 182.695312 174.570312 189.644531 L 174.496094 189.863281 L 174.386719 189.863281 C 176.605469 182.328125 181.621094 175.195312 189.835938 175.195312 Z M 220.003906 171.335938 C 223.347656 171.335938 226.074219 173.484375 226.292969 178.144531 C 226.800781 187.679688 218.222656 195.46875 208.808594 197 L 208.519531 197.035156 L 208.445312 196.925781 C 216.515625 195.105469 224.511719 187.789062 224.039062 179.164062 C 223.820312 175.085938 221.421875 173.15625 218.476562 173.15625 C 213.0625 173.15625 208.335938 177.742188 205.394531 183.820312 C 205.355469 184.113281 205.355469 184.441406 205.320312 184.769531 C 208.011719 179.164062 212.191406 174.867188 216.878906 174.867188 C 219.496094 174.867188 221.496094 176.578125 221.675781 180.144531 C 222.078125 187.570312 215.132812 194.816406 208.445312 196.636719 L 208.226562 196.671875 L 208.117188 196.5625 C 213.644531 194.523438 219.75 187.609375 219.421875 181.128906 C 219.277344 178.179688 217.570312 176.652344 215.351562 176.652344 C 211.28125 176.652344 207.644531 180.765625 205.136719 185.96875 C 205.066406 186.371094 205.03125 186.734375 204.957031 187.132812 C 207.175781 182.292969 210.410156 178.398438 213.753906 178.398438 C 215.753906 178.398438 217.0625 179.707031 217.167969 182.148438 C 217.460938 187.570312 212.589844 194.160156 208.082031 196.308594 L 207.9375 196.378906 L 207.828125 196.269531 C 211.136719 194.125 215.132812 187.644531 214.917969 183.167969 C 214.808594 181.347656 213.863281 180.21875 212.261719 180.21875 C 209.574219 180.21875 206.738281 184.039062 204.664062 188.515625 C 204.484375 189.246094 204.300781 189.9375 204.046875 190.664062 C 205.976562 186.1875 208.554688 181.964844 210.589844 181.964844 C 211.898438 181.964844 212.445312 182.875 212.515625 184.1875 C 212.699219 187.5 210.082031 193.722656 207.71875 195.941406 L 207.609375 196.050781 L 207.5 195.941406 C 209.574219 192.230469 210.519531 187.863281 210.335938 185.242188 C 210.261719 184.550781 210.007812 183.75 209.101562 183.75 C 208.011719 183.75 206.082031 186.953125 204.339844 190.410156 L 204.15625 190.8125 L 203.976562 191.210938 C 203.902344 191.355469 203.828125 191.464844 203.792969 191.613281 L 203.683594 191.792969 C 203.210938 193.175781 202.667969 194.597656 202.121094 196.089844 L 201.902344 196.671875 L 192.417969 221.640625 L 189.800781 221.640625 L 199.359375 196.453125 C 201.394531 191.066406 203.359375 186.40625 203.066406 180.402344 C 202.8125 175.8125 199.722656 172.285156 194.089844 172.285156 C 182.421875 172.285156 176.3125 180.4375 173.988281 189.574219 L 173.914062 189.863281 L 173.804688 189.863281 C 175.949219 180 182.457031 171.300781 195.542969 171.300781 C 201.792969 171.300781 205.210938 175.269531 205.503906 180.328125 C 205.539062 181.128906 205.539062 181.894531 205.539062 182.621094 C 208.664062 176.140625 213.933594 171.335938 220.003906 171.335938 Z M 262.242188 148.367188 C 263.113281 149.316406 257.082031 164.09375 256.570312 165.441406 L 256.570312 165.476562 L 240.324219 207.480469 C 239.523438 209.628906 237.707031 214.363281 237.453125 216.980469 C 237.234375 219.675781 239.234375 220.988281 241.886719 221.496094 L 242.03125 221.53125 L 241.960938 221.640625 C 237.996094 221.023438 235.015625 219.167969 235.308594 215.78125 C 235.527344 213.125 237.050781 209.082031 237.960938 206.679688 L 238.035156 206.460938 L 253.917969 165.257812 C 254.316406 164.128906 255.515625 161.253906 256.609375 158.125 L 256.789062 157.578125 C 257.878906 154.449219 258.859375 151.207031 258.859375 149.351562 L 258.859375 149.058594 Z M 328.722656 172.390625 C 333.808594 173.230469 335.773438 176.796875 335.699219 180.253906 C 335.410156 195.980469 324.070312 219.492188 312.910156 221.53125 L 312.585938 221.570312 L 312.65625 221.460938 C 321.707031 219.785156 332.976562 194.050781 333.265625 178.542969 C 333.304688 175.667969 332.101562 173.519531 328.902344 172.609375 L 328.722656 172.574219 Z M 267.765625 178.835938 C 269.875 179.125 271.148438 180.835938 270.890625 183.714844 C 269.875 194.851562 257.84375 217.417969 244.941406 221.351562 L 244.539062 221.460938 L 244.613281 221.3125 C 255.917969 216.398438 267.222656 193.539062 268.128906 183.675781 C 268.3125 181.527344 267.332031 180.183594 265.839844 180 C 263.585938 179.671875 260.425781 181.636719 258.023438 184.476562 L 257.878906 184.660156 L 257.808594 184.550781 C 260.640625 180.800781 264.640625 178.398438 267.765625 178.835938 Z M 326.324219 172.246094 L 326.25 172.355469 C 317.492188 174.140625 305.789062 200.347656 305.53125 215.273438 C 305.496094 218.183594 306.550781 220.585938 310.003906 221.277344 L 310.183594 221.3125 L 310.113281 221.421875 C 304.804688 220.839844 303.058594 216.910156 303.132812 213.453125 C 303.421875 198.089844 315.457031 173.847656 326.324219 172.246094 Z M 269.074219 147.023438 L 244.792969 209.449219 C 243.886719 211.777344 241.8125 216.546875 241.597656 219.203125 C 241.523438 220.222656 241.851562 220.988281 242.175781 221.203125 L 242.214844 221.242188 L 242.140625 221.421875 C 241.921875 221.351562 241.777344 221.277344 241.597656 221.203125 C 240.46875 220.660156 239.597656 219.277344 239.632812 218.148438 C 239.742188 215.5625 241.597656 210.941406 242.503906 208.648438 L 242.578125 208.464844 L 259.117188 165.621094 C 259.261719 165.183594 261.113281 160.597656 262.824219 156.15625 L 263.003906 155.648438 C 264.457031 151.828125 265.804688 148.257812 265.765625 147.75 L 265.765625 147.714844 Z M 142.910156 157.46875 C 142.257812 159.617188 141.855469 162.746094 143.457031 169.480469 L 143.527344 169.808594 L 152.980469 214.617188 L 151.308594 218.148438 L 140.691406 168.644531 C 139.601562 163.839844 139.3125 161.363281 139.238281 159.105469 L 139.238281 158.816406 C 139.238281 158.523438 139.238281 158.234375 139.238281 157.941406 L 139.238281 157.503906 Z M 150.324219 157.46875 L 150.324219 157.578125 C 148 159.652344 147.382812 163.328125 148.726562 170.28125 L 148.796875 170.574219 L 156.394531 207.445312 L 154.6875 211.011719 L 146.109375 169.878906 C 144.691406 162.929688 145.054688 160.199219 146.253906 157.578125 L 146.289062 157.46875 Z M 160.832031 157.46875 L 160.832031 157.578125 C 154.324219 158.816406 152.433594 162.457031 154.03125 170.753906 L 159.777344 200.273438 L 158.066406 203.878906 L 151.488281 170.828125 C 149.453125 161.179688 152.941406 158.453125 154.722656 157.542969 L 154.832031 157.503906 Z M 192.269531 157.46875 L 192.269531 157.578125 C 182.421875 160.5625 177.984375 166.277344 170.425781 180.472656 L 170.207031 180.910156 L 170.027344 180.800781 C 176.679688 166.570312 179.875 160.707031 185.109375 157.542969 L 185.257812 157.433594 C 185.257812 157.46875 192.269531 157.46875 192.269531 157.46875 Z M 180.457031 157.46875 L 180.457031 157.578125 C 179.621094 158.816406 178.894531 160.089844 178.058594 161.765625 L 177.914062 162.089844 C 176.207031 165.550781 174.097656 170.644531 170.027344 180.363281 L 169.878906 180.726562 L 169.699219 180.617188 C 173.734375 169.335938 175.804688 163.800781 175.332031 157.867188 L 175.332031 157.503906 C 175.296875 157.46875 180.457031 157.46875 180.457031 157.46875 Z M 171.296875 157.46875 C 174.824219 161.035156 173.589844 166.933594 169.664062 180.074219 L 169.554688 180.472656 L 169.371094 180.363281 C 173.117188 165.511719 171.917969 159.6875 166.425781 157.652344 L 166.246094 157.578125 L 166.246094 157.46875 Z M 171.296875 157.46875 " fill-opacity="1" fill-rule="evenodd"/></g><path fill="#8ec089" d="M 74.4375 180.617188 L 74.582031 180.722656 C 78.074219 169.148438 79.199219 164.054688 76.109375 160.921875 L 71.710938 160.921875 L 71.710938 161.03125 C 76.621094 162.742188 77.746094 167.695312 74.4375 180.617188 Z M 74.4375 180.617188 " fill-opacity="1" fill-rule="nonzero"/><path fill="#2474de" d="M 88.320312 160.921875 C 83.667969 163.617188 80.90625 168.640625 75.050781 181.015625 L 75.199219 181.125 C 81.921875 168.605469 85.738281 163.617188 94.425781 161.03125 L 94.425781 160.921875 Z M 88.320312 160.921875 " fill-opacity="1" fill-rule="evenodd"/><path fill="#e85f24" d="M 74.730469 180.832031 L 74.875 180.941406 C 80.402344 167.949219 81.820312 164.417969 84.109375 161.03125 L 84.109375 160.921875 L 79.636719 160.921875 L 79.636719 161.070312 C 80.109375 166.238281 78.292969 171.007812 74.730469 180.832031 Z M 74.730469 180.832031 " fill-opacity="1" fill-rule="nonzero"/><path fill="#76c5f7" d="M 37.945312 160.921875 L 33.984375 160.921875 L 33.984375 161.03125 C 37.617188 162.453125 39.363281 165.183594 40.816406 171.550781 C 40.816406 171.625 50.558594 216.25 50.558594 216.25 L 52.777344 216.25 L 42.960938 171.1875 C 41.253906 163.472656 39.472656 162.050781 37.945312 160.921875 Z M 37.945312 160.921875 " fill-opacity="1" fill-rule="evenodd"/><path fill="#2474de" d="M 58.703125 213.121094 L 60.15625 210.097656 L 51.941406 171.515625 C 50.488281 165.507812 50.816406 162.78125 51.433594 160.921875 L 48.234375 160.921875 C 48.199219 163.363281 48.308594 165.363281 49.472656 170.496094 Z M 58.703125 213.121094 " fill-opacity="1" fill-rule="evenodd"/><path fill="#318eee" d="M 45.328125 160.921875 L 41.621094 160.921875 L 41.621094 161.03125 C 43.292969 163.035156 43.765625 165.472656 45.074219 170.824219 L 54.960938 216.289062 L 57.175781 216.289062 L 47.289062 170.640625 C 45.871094 164.816406 45.65625 163.179688 45.328125 160.921875 Z M 45.328125 160.921875 " fill-opacity="1" fill-rule="nonzero"/><path fill="#e85f24" d="M 61.640625 207.003906 L 63.128906 203.949219 L 56.515625 172.207031 C 55.28125 166.054688 55.824219 162.851562 57.859375 161.03125 L 57.859375 160.921875 L 54.335938 160.921875 C 53.242188 163.214844 52.917969 165.507812 54.152344 171.625 Z M 61.640625 207.003906 " fill-opacity="1" fill-rule="nonzero"/><path fill="#8ec089" d="M 58.847656 172.425781 C 57.066406 163.945312 60.265625 161.6875 61.753906 160.960938 L 66.988281 160.960938 L 66.988281 161.070312 C 61.316406 162.160156 59.683594 165.257812 61.0625 172.425781 L 66.078125 197.832031 L 64.589844 200.929688 Z M 58.847656 172.425781 " fill-opacity="1" fill-rule="nonzero"/></svg>